<svg width="496" height="364" viewBox="0 0 496 364" fill="none" xmlns="http://www.w3.org/2000/svg">
  <rect width="496" height="364" rx="12" fill="#F8FAFC"/>
  <rect x="20" y="20" width="456" height="60" rx="8" fill="#E2E8F0"/>
  <rect x="40" y="40" width="120" height="20" rx="4" fill="#94A3B8"/>
  <rect x="340" y="40" width="40" height="20" rx="4" fill="#94A3B8"/>
  <rect x="400" y="40" width="40" height="20" rx="4" fill="#94A3B8"/>
  
  <rect x="20" y="100" width="220" height="244" rx="8" fill="#E2E8F0"/>
  <rect x="260" y="100" width="216" height="120" rx="8" fill="#D9F2FF"/>
  <rect x="260" y="240" width="216" height="104" rx="8" fill="#D4E6FF"/>
  
  <rect x="40" y="120" width="60" height="60" rx="8" fill="#212280"/>
  <rect x="120" y="120" width="100" height="20" rx="4" fill="#94A3B8"/>
  <rect x="120" y="150" width="60" height="16" rx="4" fill="#94A3B8"/>
  
  <rect x="40" y="200" width="60" height="60" rx="8" fill="#1244FF"/>
  <rect x="120" y="200" width="100" height="20" rx="4" fill="#94A3B8"/>
  <rect x="120" y="230" width="60" height="16" rx="4" fill="#94A3B8"/>
  
  <rect x="40" y="280" width="60" height="60" rx="8" fill="#6A55FF"/>
  <rect x="120" y="280" width="100" height="20" rx="4" fill="#94A3B8"/>
  <rect x="120" y="310" width="60" height="16" rx="4" fill="#94A3B8"/>
</svg> 