<svg width="260" height="180" viewBox="0 0 260 180" fill="none" xmlns="http://www.w3.org/2000/svg">
  <path d="M228.904 148.543H35.9761C35.6269 148.543 35.292 148.405 35.0474 148.16C34.8027 147.916 34.6641 147.581 34.6641 147.232V40.6956C34.6641 40.3464 34.8027 40.0114 35.0474 39.7667C35.292 39.5221 35.6269 39.3835 35.9761 39.3835H228.904C229.253 39.3835 229.588 39.5221 229.833 39.7667C230.077 40.0114 230.216 40.3464 230.216 40.6956V147.232C230.216 147.581 230.077 147.916 229.833 148.16C229.588 148.405 229.253 148.543 228.904 148.543Z" fill="#F9E7B9"/>
  <path d="M228.904 148.543H35.9761C35.6269 148.543 35.292 148.405 35.0474 148.16C34.8027 147.916 34.6641 147.581 34.6641 147.232V40.6956C34.6641 40.3464 34.8027 40.0114 35.0474 39.7667C35.292 39.5221 35.6269 39.3835 35.9761 39.3835H228.904C229.253 39.3835 229.588 39.5221 229.833 39.7667C230.077 40.0114 230.216 40.3464 230.216 40.6956V147.232C230.216 147.581 230.077 147.916 229.833 148.16C229.588 148.405 229.253 148.543 228.904 148.543Z" fill="url(#paint0_linear_2382_13557)"/>
  <ellipse cx="132.5" cy="22.5" rx="76.5" ry="12.5" fill="#E9EDFF"/>
  <path d="M75.5761 33.5H195.5V122.5H75.5761V33.5Z" fill="#E9EDFF"/>
  <path d="M75.5761 33.5H195.5V122.5H75.5761V33.5Z" fill="url(#paint1_linear_2382_13557)"/>
  <path d="M75.5761 33.5H195.5V47.5H75.5761V33.5Z" fill="#7A9CFF"/>
  <path d="M75.5761 33.5H195.5V47.5H75.5761V33.5Z" fill="url(#paint2_linear_2382_13557)"/>
  <path d="M149.5 87C134.917 75.1579 82.5761 102.5 82.5761 102.5L85.5761 131H195.5L189.5 104.5C189.5 104.5 164.083 98.8421 149.5 87Z" fill="#F8FAFF"/>
  <path d="M183.84 101.1L161.94 85.1H161.9C161.8 85.0333 161.7 84.9667 161.6 84.9C161.5 84.8333 161.4 84.8 161.3 84.8C161.267 84.8 161.233 84.8 161.2 84.8C161.167 84.8 161.133 84.8 161.1 84.8C161.033 84.8 160.967 84.8 160.9 84.8C160.833 84.8 160.767 84.8 160.7 84.8C160.667 84.8 160.633 84.8 160.6 84.8C160.567 84.8 160.533 84.8 160.5 84.8C160.4 84.8333 160.3 84.8667 160.2 84.9C160.1 84.9333 160 85 159.9 85.1H159.86L137.96 101.1C137.76 101.233 137.593 101.4 137.46 101.6C137.327 101.8 137.243 102.033 137.21 102.3C137.177 102.567 137.21 102.833 137.31 103.1C137.41 103.367 137.56 103.6 137.76 103.8C137.96 104 138.193 104.15 138.46 104.25C138.727 104.35 138.993 104.4 139.26 104.4C139.527 104.4 139.793 104.333 140.06 104.2C140.327 104.067 140.56 103.9 140.76 103.7L159.86 89.8L178.96 103.7C179.16 103.9 179.393 104.067 179.66 104.2C179.927 104.333 180.193 104.4 180.46 104.4C180.727 104.4 180.993 104.35 181.26 104.25C181.527 104.15 181.76 104 181.96 103.8C182.16 103.6 182.31 103.367 182.41 103.1C182.51 102.833 182.543 102.567 182.51 102.3C182.477 102.033 182.393 101.8 182.26 101.6C182.127 101.4 181.96 101.233 181.76 101.1H183.84Z" fill="url(#paint3_linear_2382_13557)"/>
  <path d="M95.8535 131C95.8535 121.717 95.8535 112.433 95.8535 103.15C95.853 102.93 95.9005 102.712 95.9929 102.511C96.0853 102.31 96.2202 102.131 96.3877 101.986C96.5552 101.841 96.7513 101.734 96.9633 101.672C97.1753 101.609 97.3981 101.593 97.6165 101.625C98.0534 101.684 98.449 101.916 98.7254 102.272C99.0017 102.627 99.1385 103.079 99.1084 103.534C99.0984 103.689 99.0984 103.845 99.1084 104C99.1084 112.967 99.1084 121.933 99.1084 130.9C99.1084 131.367 99.1084 131.367 99.5584 131.367C124.872 131.367 150.185 131.367 175.499 131.367C175.716 131.367 175.932 131.367 176.149 131.367C176.491 131.367 176.822 131.498 177.071 131.731C177.319 131.964 177.467 132.286 177.487 132.628C177.506 132.969 177.394 133.306 177.176 133.567C176.957 133.827 176.647 133.992 176.308 134.026C176.141 134.043 175.974 134.043 175.808 134.026C149.858 134.026 123.908 134.026 97.9581 134.026C97.7911 134.026 97.6241 134.026 97.4571 134.026C96.8981 134.026 96.3631 133.809 95.9634 133.421C95.5638 133.033 95.331 132.505 95.3121 131.946C95.3121 131.633 95.3121 131.317 95.3121 131H95.8535Z" fill="url(#paint4_linear_2382_13557)"/>
  <path d="M152.07 54.5498C152.001 56.1661 151.65 57.7554 151.03 59.2498C150.404 60.7492 149.502 62.1233 148.37 63.3098C147.204 64.5243 145.831 65.5231 144.32 66.2598C142.773 67.0148 141.102 67.493 139.39 67.6698C138.534 67.7705 137.67 67.7705 136.815 67.6698C136.525 67.6698 136.235 67.6098 135.945 67.5498C133.786 67.1795 131.745 66.3237 130 65.0498C129.242 64.4791 128.546 63.8365 127.92 63.1298C127.23 62.3539 126.649 61.4829 126.19 60.5398C125.712 59.5522 125.376 58.5023 125.19 57.4198C125.03 56.4298 124.97 55.4198 125.02 54.4098C125.113 52.4918 125.593 50.6147 126.44 48.8898C127.23 47.2593 128.326 45.8009 129.67 44.5898C131.036 43.3552 132.645 42.4301 134.39 41.8698C136.142 41.3031 137.986 41.1182 139.81 41.3298C140.65 41.4099 141.48 41.5498 142.3 41.7498C143.926 42.1259 145.476 42.7622 146.88 43.6298C148.171 44.4269 149.337 45.408 150.34 46.5398C151.227 47.5345 151.923 48.6895 152.39 49.9498C152.884 51.3898 153.1 52.9098 153.02 54.4298C153.02 54.4831 153.02 54.5364 153.02 54.5898L152.07 54.5498Z" fill="#7A90BB"/>
  <path d="M132.37 67.5095C135.16 74.2595 134.25 79.3094 130.61 82.8794C130.283 83.2001 129.902 83.4669 129.486 83.6694C124.486 86.3895 118.526 79.6695 118.576 73.7695C118.6 71.0149 119.595 68.3608 121.39 66.2195C122.176 65.2789 123.193 64.5344 124.347 64.0694C125.501 63.6043 126.753 63.4349 127.993 63.5773C129.232 63.7197 130.418 64.1693 131.435 64.8871C132.452 65.605 133.267 66.5678 133.8 67.6795C133.32 67.6195 133.01 67.5695 132.37 67.5095Z" fill="#F46C62"/>
  <path d="M159.27 68.0302C159.27 68.2003 159.27 68.3603 159.27 68.5303C159.339 70.21 159.69 71.8626 160.31 73.4203C160.938 74.9759 161.847 76.4046 162.99 77.6403C164.148 78.8986 165.52 79.9389 167.04 80.7103C168.605 81.4986 170.305 82.0006 172.05 82.1903C172.05 82.1903 176.28 82.8803 179.98 80.3903C180.743 79.8241 181.444 79.1833 182.07 78.4803C182.769 77.6969 183.358 76.8174 183.82 75.8703C184.296 74.8787 184.63 73.8254 184.81 72.7403C184.97 71.7503 185.03 70.7403 184.98 69.7303C184.89 67.8135 184.41 65.9378 183.56 64.2203C182.831 62.7354 181.835 61.3999 180.62 60.2903C180.62 60.2903 171.62 51.9403 161.62 58.4803C160.328 59.4218 159.143 60.5105 158.09 61.7303C158.09 61.7303 156.09 64.1003 155.33 66.9803C154.839 68.5501 154.624 70.1978 154.7 71.8403C154.7 71.8903 154.7 71.9503 154.7 72.0003C157.4 71.2703 159.27 68.0302 159.27 68.0302Z" fill="#FB9861"/>
  <rect x="156.576" y="108.5" width="56" height="3" rx="1.5" fill="#7A9CFF"/>
  <rect x="169.576" y="114.5" width="28" height="3" rx="1.5" fill="#7A9CFF"/>
  <rect x="85.5761" y="108.5" width="56" height="3" rx="1.5" fill="#7A9CFF"/>
  <rect x="98.5761" y="114.5" width="28" height="3" rx="1.5" fill="#7A9CFF"/>
  <ellipse cx="57.5" cy="56.5" rx="14.5" ry="14.5" fill="#7A9CFF"/>
  <ellipse cx="57.5" cy="56.5" rx="14.5" ry="14.5" fill="url(#paint5_linear_2382_13557)"/>
  <path d="M51.5 55.6L56.9 61L64.5 52" stroke="white" stroke-width="2.5" stroke-linecap="round" stroke-linejoin="round"/>
  <ellipse cx="209.5" cy="56.5" rx="14.5" ry="14.5" fill="#E66767"/>
  <path d="M215.5 50.5L203.5 62.5" stroke="white" stroke-width="2.5" stroke-linecap="round" stroke-linejoin="round"/>
  <path d="M203.5 50.5L215.5 62.5" stroke="white" stroke-width="2.5" stroke-linecap="round" stroke-linejoin="round"/>
  <ellipse cx="57.5" cy="105.5" rx="14.5" ry="14.5" fill="#FFC000"/>
  <path d="M57.5 99V107" stroke="white" stroke-width="2.5" stroke-linecap="round" stroke-linejoin="round"/>
  <path d="M57.5 112V112.01" stroke="white" stroke-width="2.5" stroke-linecap="round" stroke-linejoin="round"/>
  <ellipse cx="210.5" cy="103.5" rx="14.5" ry="14.5" fill="#11B578"/>
  <path d="M205 99H215C215.398 99 215.779 99.158 216.061 99.439C216.342 99.721 216.5 100.102 216.5 100.5V106C216.5 106.398 216.342 106.779 216.061 107.061C215.779 107.342 215.398 107.5 215 107.5H205C204.602 107.5 204.221 107.342 203.939 107.061C203.658 106.779 203.5 106.398 203.5 106V100.5C203.5 100.102 203.658 99.721 203.939 99.439C204.221 99.158 204.602 99 205 99V99Z" stroke="white" stroke-width="2.5" stroke-linecap="round" stroke-linejoin="round"/>
  <path d="M216.5 100.5L210 104L203.5 100.5" stroke="white" stroke-width="2.5" stroke-linecap="round" stroke-linejoin="round"/>
  <defs>
    <linearGradient id="paint0_linear_2382_13557" x1="136.5" y1="36.5" x2="146" y2="148.5" gradientUnits="userSpaceOnUse">
      <stop stop-color="#FAE8BA"/>
      <stop offset="1" stop-color="#E6AC44"/>
    </linearGradient>
    <linearGradient id="paint1_linear_2382_13557" x1="135.538" y1="33.5" x2="135.538" y2="122.5" gradientUnits="userSpaceOnUse">
      <stop stop-color="#DEE7FD"/>
      <stop offset="1" stop-color="#F9FAFF"/>
    </linearGradient>
    <linearGradient id="paint2_linear_2382_13557" x1="135.538" y1="33.5" x2="135.538" y2="47.5" gradientUnits="userSpaceOnUse">
      <stop stop-color="#7A9CFF"/>
      <stop offset="1" stop-color="#5A7CE6"/>
    </linearGradient>
    <linearGradient id="paint3_linear_2382_13557" x1="160.025" y1="84.8" x2="160.025" y2="104.4" gradientUnits="userSpaceOnUse">
      <stop stop-color="#7A9CFF"/>
      <stop offset="1" stop-color="#5A7CE6"/>
    </linearGradient>
    <linearGradient id="paint4_linear_2382_13557" x1="136.4" y1="101.625" x2="136.4" y2="134.026" gradientUnits="userSpaceOnUse">
      <stop stop-color="#7A9CFF"/>
      <stop offset="1" stop-color="#5A7CE6"/>
    </linearGradient>
    <linearGradient id="paint5_linear_2382_13557" x1="57.5" y1="42" x2="57.5" y2="71" gradientUnits="userSpaceOnUse">
      <stop stop-color="#7A9CFF"/>
      <stop offset="1" stop-color="#5A7CE6"/>
    </linearGradient>
  </defs>
</svg> 