<svg width="197" height="143" viewBox="0 0 197 143" fill="none" xmlns="http://www.w3.org/2000/svg">
  <!-- Clipboard/Survey -->
  <rect x="50" y="20" width="90" height="110" rx="4" fill="#F8FAFC" stroke="#212280" stroke-width="2"/>
  <rect x="50" y="20" width="90" height="20" rx="4" fill="#212280"/>
  
  <!-- Survey form elements -->
  <rect x="60" y="50" width="70" height="8" rx="2" fill="#212280" opacity="0.2"/>
  
  <!-- Rating options -->
  <circle cx="70" cy="70" r="6" fill="#F8FAFC" stroke="#212280" stroke-width="2"/>
  <circle cx="95" cy="70" r="6" fill="#F8FAFC" stroke="#212280" stroke-width="2"/>
  <circle cx="120" cy="70" r="6" fill="#7C3AED" stroke="#212280" stroke-width="2"/>
  
  <!-- More form elements -->
  <rect x="60" y="85" width="70" height="8" rx="2" fill="#212280" opacity="0.2"/>
  
  <!-- Checkbox options -->
  <rect x="65" y="105" width="10" height="10" rx="2" fill="#F8FAFC" stroke="#212280" stroke-width="2"/>
  <rect x="65" y="120" width="10" height="10" rx="2" fill="#7C3AED" stroke="#212280" stroke-width="2"/>
  
  <rect x="80" y="105" width="40" height="6" rx="1" fill="#212280" opacity="0.3"/>
  <rect x="80" y="122" width="40" height="6" rx="1" fill="#212280" opacity="0.3"/>
  
  <!-- Pencil -->
  <rect transform="rotate(45 155 40)" x="150" y="20" width="5" height="40" rx="1" fill="#F59E0B"/>
  <path d="M140 53L150 43L155 48L145 58L140 53Z" fill="#212280"/>
</svg> 