<svg width="24" height="24" viewBox="0 0 24 24" fill="none" xmlns="http://www.w3.org/2000/svg">
  <path d="M19.4 7.34003L16.66 4.60003C16.4774 4.41751 16.2303 4.31235 15.97 4.31235C15.7097 4.31235 15.4626 4.41751 15.28 4.60003L7.58 12.29C7.39753 12.4726 7.29237 12.7197 7.29237 12.98C7.29237 13.2403 7.39753 13.4875 7.58 13.67L10.32 16.41C10.5026 16.5925 10.7497 16.6977 11.01 16.6977C11.2703 16.6977 11.5174 16.5925 11.7 16.41L19.4 8.71003C19.5825 8.52744 19.6876 8.28032 19.6876 8.02003C19.6876 7.75974 19.5825 7.51262 19.4 7.33003V7.34003Z" stroke="#3E4C94" stroke-width="2" stroke-linecap="round" stroke-linejoin="round"/>
  <path d="M16 8L14 6" stroke="#3E4C94" stroke-width="2" stroke-linecap="round" stroke-linejoin="round"/>
  <path d="M4 20H20" stroke="#3E4C94" stroke-width="2" stroke-linecap="round" stroke-linejoin="round"/>
</svg> 