<svg width="122" height="36" viewBox="0 0 122 36" fill="none" xmlns="http://www.w3.org/2000/svg">
  <path d="M60.1514 10.2173H56.8437L50.8011 25.4407H54.2517L55.3846 22.5715H61.5525L62.6854 25.4407H66.194L60.1514 10.2173ZM56.3173 19.7599L58.4686 14.0465L60.6198 19.7599H56.3173Z" fill="#2D3648"/>
  <path d="M70.9229 13.4043H67.7581V25.4408H70.9229V22.1871C70.9229 22.1871 72.1136 23.5211 74.5775 23.7627C78.213 24.1471 80.7928 21.5449 80.7928 19.4865C80.7928 15.5783 77.2264 13.0364 74.2354 13.4208C72.6186 13.6129 70.9229 15.3862 70.9229 15.3862V13.4043Z" fill="#2D3648"/>
  <path d="M73.2135 20.8698C71.7536 20.8698 70.9062 19.3863 70.9062 19.3863C70.9062 19.3863 71.5155 18.0026 73.2135 17.8262C74.6733 17.6828 75.9305 18.4849 75.9305 19.3698C75.9305 20.2546 74.6733 20.8698 73.2135 20.8698Z" fill="#2D3648"/>
  <path d="M89.103 13.4209C89.103 13.4209 86.9175 12.8718 85.4576 14.0468C83.9978 15.2218 83.3553 16.6878 83.3553 16.6878V13.4043H80.1904V25.4408H83.3553V20.2879C83.3553 20.2879 83.2837 17.8596 85.1822 17.1237C87.0308 16.4044 88.9957 17.5629 88.9957 17.5629L89.103 13.4209Z" fill="#2D3648"/>
  <path d="M95.0285 13.0528C91.6631 13.0528 89.2334 16.1718 89.2334 19.3863C89.2334 22.6009 91.9568 25.7996 95.3221 25.7996C98.6875 25.7996 101.101 22.6009 101.101 19.3863C101.101 16.1718 98.3939 13.0528 95.0285 13.0528ZM94.9926 22.635C93.5328 22.635 92.3421 21.1845 92.3421 19.3369C92.3421 17.4893 93.5328 16.0223 94.9926 16.0223C96.4524 16.0223 97.6431 17.4893 97.6431 19.3369C97.6431 21.1845 96.4524 22.635 94.9926 22.635Z" fill="#2D3648"/>
  <path d="M110.177 13.4043H106.691L103.884 17.3159V8.59131H100.719V25.4408H103.884V19.9366L107.156 25.4408H110.963L106.873 18.904L110.177 13.4043Z" fill="#2D3648"/>
  <path d="M31.8685 8.59131H28.7036V25.4243H31.8685V8.59131Z" fill="#2D3648"/>
  <path d="M38.6516 8.59131H35.4868V25.4243H38.6516V8.59131Z" fill="#2D3648"/>
  <path d="M45.4346 8.59131H42.2697V25.4243H45.4346V8.59131Z" fill="#2D3648"/>
  <path d="M14.9356 14.7164C14.9356 7.78785 20.4422 2.03326 27.2612 2.03326L27.2612 11.4419C27.2612 12.9583 28.5184 14.1334 30.0515 14.1334C31.5845 14.1334 32.8417 15.3084 32.8417 16.8248L32.8417 19.3201C32.8417 20.8366 31.5845 22.0116 30.0515 22.0116C28.5184 22.0116 27.2612 23.1867 27.2612 24.7031L27.2612 33.8793C20.4422 33.8793 14.9356 28.1247 14.9356 21.1962L14.9356 14.7164Z" fill="#3E4C94"/>
  <path d="M14.9356 14.7164C14.9356 7.78785 9.42898 2.03326 2.61001 2.03326L2.61001 11.4419C2.61001 12.9583 1.35278 14.1334 -0.180269 14.1334C-1.71332 14.1334 -2.97055 15.3084 -2.97055 16.8248L-2.97055 19.3201C-2.97055 20.8366 -1.71332 22.0116 -0.180269 22.0116C1.35278 22.0116 2.61001 23.1867 2.61001 24.7031L2.61001 33.8793C9.42898 33.8793 14.9356 28.1247 14.9356 21.1962L14.9356 14.7164Z" fill="#3E4C94"/>
  <rect x="111.939" y="13.4043" width="9.45685" height="3.13561" fill="#2D3648"/>
  <rect x="111.939" y="18.6201" width="9.45685" height="3.13561" fill="#2D3648"/>
  <rect x="111.939" y="23.8358" width="9.45685" height="3.13561" fill="#2D3648"/>
</svg> 